<svg viewBox="0 0 192 68" xmlns="http://www.w3.org/2000/svg" class="cobiMainLogo"><path d="M87.738 35.986H55.593V67.64h32.145V35.986ZM87.767.063H55.611v4.82h32.156V.064Z" fill="#D00"/><path d="M75.521 39.149H72.31v25.323h3.211V39.149ZM65.234 50.754c.728 0 1.288-.843 1.288-1.475v-8.862c0-.631-.641-1.268-1.288-1.268h-6.43v25.323h6.43c.64 0 1.288-.631 1.288-1.268V51.81c0-.63-.484-1.056-1.288-1.056Zm-3.212-8.437h1.288v7.278h-1.288v-7.278Zm0 18.987v-8.547h1.288v8.547h-1.288ZM81.31 39.149v4.43h-3.213c-.64 0-1.288.632-1.288 1.27v18.355c0 .63.642 1.268 1.288 1.268h6.43V39.149h-3.218ZM80.02 61.304V46.742h1.288v14.562h-1.288ZM71.022 39.149H67.81v3.162h3.212V39.15ZM71.022 43.58H67.81v20.892h3.212V43.58Z" fill="#fff"/><path d="M0 17.172C0 8.242 6.854 2.146 15.702 2.146c6.505 0 10.264 3.484 12.34 7.1l-5.398 2.611c-1.241-2.353-3.893-4.224-6.947-4.224-5.351 0-9.245 4.052-9.245 9.54 0 5.486 3.894 9.538 9.245 9.538 3.054 0 5.706-1.83 6.947-4.224l5.398 2.571c-2.122 3.616-5.84 7.146-12.34 7.146C6.854 32.204 0 26.103 0 17.172ZM30.012 21.138c0-5.969 4.249-11.02 11.278-11.02 7.076 0 11.325 5.051 11.325 11.02 0 6.01-4.25 11.066-11.325 11.066-7.035 0-11.278-5.056-11.278-11.066Zm16.763 0c0-3.266-1.994-6.095-5.485-6.095-3.497 0-5.438 2.83-5.438 6.095 0 3.312 1.947 6.141 5.438 6.141 3.491 0 5.485-2.83 5.485-6.14ZM82.102 31.682V18.395c0-1.963-.886-3.352-3.183-3.352-1.993 0-3.625 1.308-4.424 2.44v14.199h-5.66V18.395c0-1.963-.885-3.352-3.182-3.352-1.946 0-3.584 1.308-4.424 2.485v14.16h-5.624V10.645h5.619v2.744c.886-1.263 3.718-3.266 6.988-3.266 3.142 0 5.13 1.435 5.928 3.834 1.236-1.917 4.068-3.834 7.344-3.834 3.934 0 6.283 2.049 6.283 6.36v15.203l-5.665-.005ZM96.813 28.978v10.716h-5.619V10.64h5.62v2.658c1.637-2.05 3.98-3.18 6.591-3.18 5.485 0 9.466 4.006 9.466 11.02 0 7.014-3.981 11.066-9.466 11.066-2.518 0-4.867-1.044-6.592-3.226Zm10.218-7.84c0-3.616-2.169-6.095-5.398-6.095-1.812 0-3.893 1.044-4.82 2.393v7.45c.927 1.309 3.008 2.393 4.82 2.393 3.235 0 5.398-2.485 5.398-6.14ZM130.24 31.682v-2.658c-1.457 1.613-4.027 3.18-7.519 3.18-4.686 0-6.901-2.525-6.901-6.623V10.64h5.619v12.764c0 2.916 1.55 3.874 3.934 3.874 2.169 0 3.894-1.176 4.867-2.393V10.641h5.619v21.04h-5.619ZM142.48 26.453V15.479h-3.538v-4.833h3.538V4.89h5.66v5.751h4.336v4.833h-4.336v9.493c0 1.31.705 2.308 1.947 2.308.839 0 1.637-.304 1.946-.609l1.195 4.184c-.839.74-2.343 1.35-4.686 1.35-3.934.005-6.062-1.998-6.062-5.746ZM154.784 21.138c0-6.095 4.558-11.02 11.057-11.02 6.371 0 10.707 4.707 10.707 11.588v1.217h-15.883c.356 2.658 2.524 4.879 6.15 4.879 1.812 0 4.336-.787 5.706-2.09l2.477 3.57c-2.122 1.918-5.485 2.916-8.801 2.916-6.505.006-11.413-4.31-11.413-11.06Zm11.057-6.623c-3.497 0-5.001 2.571-5.263 4.66h10.527c-.129-2.003-1.545-4.66-5.264-4.66ZM179.568 31.682V10.64h5.618v2.875c1.504-1.871 4.156-3.398 6.814-3.398v5.401c-.396-.086-.927-.132-1.55-.132-1.86 0-4.337 1.045-5.264 2.393v13.896h-5.618v.006Z"/></svg>